PathFileType	4	(X/Y/Z)	Patient4_TMGait_0pt7_02_left_24.trc.trc
DataRate	CameraRate	NumFrames	NumMarkers	Units	OrigDataRate	OrigDataStartFrame	OrigNumFrames
85.889570552147	85.889570552147	4	33	mm	85.889570552147	18	       141
Frame#	Time	Sacral			L.Shoulder			Chest			R.Shoulder			Neck			R.ASIS			L.ASIS			R.Thigh.Superior			R.Thigh.Lateral			R.Thigh.Inferior			R.Patella			L.Thigh.Superior			L.Thigh.Lateral			L.Thigh.Inferior			L.Patella			L.Shank.Superior			L.Shank.Lateral			L.Shank.Inferior			R.Shank.Superior			R.Shank.Lateral			R.Shank.Inferior			R.Heel			R.Midfoot.Superior			R.Midfoot.Lateral			R.Toe			L.Heel			L.Midfoot.Lateral			L.Midfoot.Superior			L.Toe			L.Elbow			L.Wrist			R.Elbow			R.Wrist			
		X1	Y1	Z1	X2	Y2	Z2	X3	Y3	Z3	X4	Y4	Z4	X5	Y5	Z5	X6	Y6	Z6	X7	Y7	Z7	X8	Y8	Z8	X9	Y9	Z9	X10	Y10	Z10	X11	Y11	Z11	X12	Y12	Z12	X13	Y13	Z13	X14	Y14	Z14	X15	Y15	Z15	X16	Y16	Z16	X17	Y17	Z17	X18	Y18	Z18	X19	Y19	Z19	X20	Y20	Z20	X21	Y21	Z21	X22	Y22	Z22	X23	Y23	Z23	X24	Y24	Z24	X25	Y25	Z25	X26	Y26	Z26	X27	Y27	Z27	X28	Y28	Z28	X29	Y29	Z29	X30	Y30	Z30	X31	Y31	Z31	X32	Y32	Z32	X33	Y33	Z33	

18	27.467928571429	820.015861789967	1012.468145978262	520.881379663446	989.145450903189	1415.374877870704	295.677448596655	1119.711210680438	1342.501730318964	434.819575866214	1082.335175301997	1431.881325147840	617.915752006212	1028.590250250134	1482.532294849010	444.060059934726	1054.114693597923	935.904323775380	608.136653158187	1006.099253501974	948.884744698451	335.922367402479	1052.543096892585	724.363511722515	583.903091512895	954.963754522898	631.446990568249	653.410630636137	1010.356381169093	566.566169367632	569.096860620506	993.401321429290	482.741225197019	576.067164032454	1096.772255381006	792.912166682268	372.396351741073	1071.778228825287	661.701771221055	288.966156830439	1180.673498865711	614.377464798141	352.676483840569	1216.667264217356	544.939939037052	345.220425603677	1193.887543018882	466.524303222723	334.876681982118	1118.420995263128	345.468060405319	274.479350553138	1191.312534570081	236.343096456202	330.187186560884	958.739411900401	397.323338172187	584.972723716702	880.407854502080	300.612663005106	650.189285704361	910.711345558440	202.735631482647	585.147350497864	764.619537029513	43.049596151678	556.211950105496	935.373647135763	96.198167001863	592.908142441307	846.871551373610	36.497538927800	631.405320044101	1055.430783994761	42.529203564160	622.902345653194	1092.012707080407	59.259607745307	353.556495697805	1171.124882561684	66.713072449152	278.605570942050	1242.661308357075	140.766125240095	308.820877512997	1377.116754178655	107.949934050368	289.077550976987	840.578789841465	1084.275464430285	236.079326623312	780.791321771592	834.766015208160	262.275635197314	1205.088411891404	1119.772324441877	745.000784125860	1436.446104019713	1139.430859952881	641.565552048157	
19	27.479571428571	821.013876391748	1011.079844080133	518.599299129682	988.555287037445	1414.481250702255	293.444583250119	1119.175643636063	1341.951508659789	432.579777963427	1081.480870159071	1431.284085583669	615.490187073186	1027.686489760693	1481.568885832610	441.859961919533	1054.702688260379	935.006570322298	606.039239464142	1007.246128506235	947.420442077244	333.572334986953	1051.253802437432	722.888176040219	582.486795824181	952.371037353429	630.849161575382	652.081219380032	1006.872887536085	565.308775198921	567.948330455285	988.970151329577	481.577712656175	574.900720850196	1096.164160182473	788.740382340980	370.260980846528	1068.279329949276	657.176891416996	287.882140230779	1176.721268746551	608.956698837510	351.459254788435	1211.954483614719	540.745528785979	345.062416481633	1191.010368830417	462.935829940426	334.506318267658	1119.110700819078	339.405906826782	274.662376689781	1195.515888959477	232.719613884154	330.630018790074	953.642792120768	396.404097168224	583.989370928993	874.477581999519	300.495886057741	649.661392511780	903.636355424241	202.243523405842	584.751080304532	756.420741077905	43.009114986003	556.207070386888	927.184764968383	96.158996132088	592.842777079138	838.650010997543	36.457064334496	631.478780388382	1047.212874963277	42.448276702564	622.941005835745	1101.530443084853	53.229868330455	354.543069976137	1180.713306349942	61.987277600364	279.721636072951	1250.327121586845	137.954044480819	309.749008274754	1385.809009649720	108.263135166410	290.576022785708	832.641064544154	1087.566444882672	235.426251869852	767.274355075441	839.782558616834	264.804331369672	1212.649377568690	1123.264274345716	739.816440480877	1439.793574641655	1160.248342895929	633.389727655119	
20	27.491214285714	822.260354310854	1009.477382334150	516.006154400105	988.083108622042	1413.468381887263	291.043334852091	1118.689639624749	1341.404307000367	430.298982773614	1080.405274588569	1430.622270715201	612.971525189403	1026.700864278974	1480.509914366717	439.524588294087	1055.481874976828	933.966217369143	603.824058499591	1008.794066790900	945.790234211759	331.154021096712	1050.285909676368	721.305201249091	580.977831188303	950.105363876666	630.118310975776	650.596466564552	1003.853228666295	563.914595832662	566.698563006961	985.006649083266	480.201023088811	573.604882370186	1095.999416989173	784.285107387229	367.916210734007	1064.895490950599	652.453684759069	286.771959429661	1172.966575881564	603.306447891512	350.092091251679	1207.136078774979	536.009304465104	344.718255464077	1187.646517194056	458.823498074434	333.905681841698	1118.295290991852	333.362091750291	275.226189982623	1197.742404392476	228.801379943696	331.210967332267	948.912799088494	395.305489822491	582.911417672622	868.782304599777	300.311565449179	649.028377279756	896.694539657949	201.642867942430	584.311658774639	748.223649260426	42.915143650773	556.202278886773	919.006548040166	96.110298611223	592.762473176049	830.437786392149	36.382412134496	631.562585958366	1039.015840026760	42.356689007018	622.997298957579	1107.948923093354	48.078052798881	356.365769645805	1186.807149568978	57.381946770614	281.267701183020	1255.277382294906	134.477159130245	310.743809480821	1391.271570671517	106.635611142500	291.475438415533	825.144224233189	1090.891680900579	234.491940117468	755.121655577238	844.678288505875	267.008130420309	1219.726786883545	1126.841114339667	734.517195277463	1441.592715208016	1180.273561530987	625.533592294184	
21	27.502857142857	823.677747539317	1007.684692651880	513.113951676876	987.719554018707	1412.331696277558	288.469915749966	1118.251982999788	1340.846616183799	427.965533246120	1079.128720944232	1429.881874558356	610.361715450530	1025.646027632419	1479.356415423500	437.046574224410	1056.410175394401	932.774634575124	601.507352036700	1010.680601694816	944.008694113332	328.702206721933	1049.654802490319	719.621671535599	579.354099832957	948.228974740150	629.229443642298	648.939002123677	1001.380567606407	562.370728300141	565.320670848024	981.610743372426	478.564855279725	572.159937603482	1096.304654618051	779.714142572519	365.422732395008	1061.809371622992	647.738532629666	285.624704643613	1169.603246730769	597.679766834126	348.586618034128	1202.442107900385	530.948525045987	344.175506282922	1184.034697874343	454.373392503225	333.078871731087	1116.246071197784	327.502201063587	275.987703373072	1198.167446084823	224.675417645729	331.828619175070	944.605349283705	393.997127326631	581.724892041954	863.377527950012	300.050664323258	648.280611458573	889.911010224635	200.927556425631	583.820384246944	740.023750408596	42.792428290027	556.213093623326	910.848363450180	96.050928973614	592.664632594799	822.239413712628	36.278284490048	631.656764003834	1030.848731565822	42.252956397892	623.070121131025	1111.283573974385	43.859549516587	358.734988986941	1189.535339453737	52.946870576293	283.036668422716	1257.671172181340	130.375530008874	311.723912420331	1393.725815279435	103.031631358367	291.839484140777	818.227808075740	1094.111311080201	233.300371355674	744.275327909643	849.320399759576	268.855964274960	1226.296419906910	1130.448108317980	729.180645142032	1441.970913711119	1199.355994510842	618.024481818787	
